<?xml version="1.0" encoding="UTF-8" standalone="no"?>
<!DOCTYPE svg PUBLIC "-//W3C//DTD SVG 1.1//EN"
 "http://www.w3.org/Graphics/SVG/1.1/DTD/svg11.dtd">
<!-- Generated by graphviz version 12.2.1 (20241206.2353)
 -->
<!-- Title: alg Pages: 1 -->
<svg width="214pt" height="268pt"
 viewBox="0.00 0.00 214.38 268.10" xmlns="http://www.w3.org/2000/svg" xmlns:xlink="http://www.w3.org/1999/xlink">
<g id="graph0" class="graph" transform="scale(1 1) rotate(0) translate(4 264.1)">
<title>alg</title>
<polygon fill="white" stroke="none" points="-4,4 -4,-264.1 210.38,-264.1 210.38,4 -4,4"/>
<!-- m101 -->
<g id="node1" class="node">
<title>m101</title>
<g id="a_node1"><a xlink:title="com.doertutorial.OrderProcessor.payOrder">
<polygon fill="#e9ecef" stroke="#343a40" points="112.88,-202.5 58.72,-202.5 58.72,-176.85 112.88,-176.85 112.88,-202.5"/>
<text text-anchor="middle" x="85.8" y="-185.8" font-family="Helvetica,sans-Serif" font-size="10.00" fill="#212529">payOrder</text>
</a>
</g>
</g>
<!-- s502 -->
<g id="node5" class="node">
<title>s502</title>
<g id="a_node5"><a xlink:title="Order paid">
<ellipse fill="white" stroke="black" cx="65.8" cy="-130.05" rx="10.8" ry="10.8"/>
<text text-anchor="middle" x="65.8" y="-126.18" font-family="Helvetica,sans-Serif" font-size="10.00" fill="#212529"> </text>
</a>
</g>
</g>
<!-- m101&#45;&gt;s502 -->
<g id="edge2" class="edge">
<title>m101&#45;&gt;s502</title>
<path fill="none" stroke="black" stroke-width="0.8" d="M81.56,-176.45C78.98,-169.01 75.61,-159.33 72.66,-150.82"/>
<polygon fill="black" stroke="black" stroke-width="0.8" points="69.43,-141.51 76.96,-149.48 70.75,-145.31 72.71,-150.96 72.71,-150.96 72.71,-150.96 70.75,-145.31 68.46,-152.43 69.43,-141.51"/>
</g>
<!-- s503 -->
<g id="node6" class="node">
<title>s503</title>
<g id="a_node6"><a xlink:title="Payment failed">
<ellipse fill="white" stroke="black" cx="123.8" cy="-130.05" rx="10.8" ry="10.8"/>
<text text-anchor="middle" x="123.8" y="-126.18" font-family="Helvetica,sans-Serif" font-size="10.00" fill="#212529"> </text>
</a>
</g>
</g>
<!-- m101&#45;&gt;s503 -->
<g id="edge3" class="edge">
<title>m101&#45;&gt;s503</title>
<g id="a_edge3"><a xlink:title="[after retry] every 5s during 10s">
<path fill="none" stroke="red" stroke-width="0.8" d="M93.86,-176.45C99.23,-168.3 106.38,-157.46 112.35,-148.42"/>
<polygon fill="red" stroke="red" stroke-width="0.8" points="117.68,-140.34 115.93,-151.16 115.46,-143.7 112.17,-148.68 112.17,-148.68 112.17,-148.68 115.46,-143.7 108.41,-146.21 117.68,-140.34"/>
</a>
</g>
</g>
<!-- m102 -->
<g id="node2" class="node">
<title>m102</title>
<g id="a_node2"><a xlink:title="com.doertutorial.OrderProcessor.reportNoPaymentForOrder">
<polygon fill="#e9ecef" stroke="#343a40" points="206.38,-83.25 77.23,-83.25 77.23,-57.6 206.38,-57.6 206.38,-83.25"/>
<text text-anchor="middle" x="141.8" y="-66.55" font-family="Helvetica,sans-Serif" font-size="10.00" fill="#212529">reportNoPaymentForOrder</text>
</a>
</g>
</g>
<!-- s505 -->
<g id="node8" class="node">
<title>s505</title>
<g id="a_node8"><a xlink:title="Rejected No Payment">
<ellipse fill="white" stroke="black" cx="141.8" cy="-10.8" rx="10.8" ry="10.8"/>
<text text-anchor="middle" x="141.8" y="-6.92" font-family="Helvetica,sans-Serif" font-size="10.00" fill="#212529"> </text>
</a>
</g>
</g>
<!-- m102&#45;&gt;s505 -->
<g id="edge5" class="edge">
<title>m102&#45;&gt;s505</title>
<path fill="none" stroke="black" stroke-width="0.8" d="M141.8,-57.2C141.8,-50.19 141.8,-41.19 141.8,-33.05"/>
<polygon fill="black" stroke="black" stroke-width="0.8" points="141.8,-23.05 146.3,-33.05 141.8,-27.08 141.8,-33.05 141.8,-33.05 141.8,-33.05 141.8,-27.08 137.3,-33.05 141.8,-23.05"/>
</g>
<!-- m103 -->
<g id="node3" class="node">
<title>m103</title>
<g id="a_node3"><a xlink:title="com.doertutorial.OrderProcessor.shipOrder">
<polygon fill="#e9ecef" stroke="#343a40" points="59,-83.25 2.6,-83.25 2.6,-57.6 59,-57.6 59,-83.25"/>
<text text-anchor="middle" x="30.8" y="-66.55" font-family="Helvetica,sans-Serif" font-size="10.00" fill="#212529">shipOrder</text>
</a>
</g>
</g>
<!-- s504 -->
<g id="node7" class="node">
<title>s504</title>
<g id="a_node7"><a xlink:title="Order shipped">
<ellipse fill="white" stroke="black" cx="10.8" cy="-10.8" rx="10.8" ry="10.8"/>
<text text-anchor="middle" x="10.8" y="-6.92" font-family="Helvetica,sans-Serif" font-size="10.00" fill="#212529"> </text>
</a>
</g>
</g>
<!-- m103&#45;&gt;s504 -->
<g id="edge7" class="edge">
<title>m103&#45;&gt;s504</title>
<path fill="none" stroke="black" stroke-width="0.8" d="M26.56,-57.2C23.98,-49.76 20.61,-40.08 17.66,-31.57"/>
<polygon fill="black" stroke="black" stroke-width="0.8" points="14.43,-22.26 21.96,-30.23 15.75,-26.06 17.71,-31.71 17.71,-31.71 17.71,-31.71 15.75,-26.06 13.46,-33.18 14.43,-22.26"/>
</g>
<!-- s506 -->
<g id="node9" class="node">
<title>s506</title>
<g id="a_node9"><a xlink:title="Order Not shipped">
<ellipse fill="white" stroke="black" cx="50.8" cy="-10.8" rx="10.8" ry="10.8"/>
<text text-anchor="middle" x="50.8" y="-6.92" font-family="Helvetica,sans-Serif" font-size="10.00" fill="#212529"> </text>
</a>
</g>
</g>
<!-- m103&#45;&gt;s506 -->
<g id="edge8" class="edge">
<title>m103&#45;&gt;s506</title>
<g id="a_edge8"><a xlink:title="[after retry] every 5s during 5s">
<path fill="none" stroke="red" stroke-width="0.8" d="M35.04,-57.2C37.62,-49.76 40.99,-40.08 43.94,-31.57"/>
<polygon fill="red" stroke="red" stroke-width="0.8" points="47.17,-22.26 48.14,-33.18 45.85,-26.06 43.89,-31.71 43.89,-31.71 43.89,-31.71 45.85,-26.06 39.64,-30.23 47.17,-22.26"/>
</a>
</g>
</g>
<!-- s501 -->
<g id="node4" class="node">
<title>s501</title>
<g id="a_node4"><a xlink:title="Goods reserved">
<ellipse fill="white" stroke="black" cx="85.8" cy="-249.3" rx="10.8" ry="10.8"/>
<text text-anchor="middle" x="85.8" y="-245.43" font-family="Helvetica,sans-Serif" font-size="10.00" fill="#212529"> </text>
</a>
</g>
</g>
<!-- s501&#45;&gt;m101 -->
<g id="edge1" class="edge">
<title>s501&#45;&gt;m101</title>
<path fill="none" stroke="black" stroke-width="0.8" d="M85.8,-238.26C85.8,-231.43 85.8,-222.11 85.8,-213.53"/>
<polygon fill="black" stroke="black" stroke-width="0.8" points="85.8,-203.56 90.3,-213.56 85.8,-207.59 85.8,-213.56 85.8,-213.56 85.8,-213.56 85.8,-207.59 81.3,-213.56 85.8,-203.56"/>
</g>
<!-- s502&#45;&gt;m103 -->
<g id="edge6" class="edge">
<title>s502&#45;&gt;m103</title>
<path fill="none" stroke="black" stroke-width="0.8" d="M60.64,-120.55C56.19,-113.22 49.57,-102.33 43.7,-92.67"/>
<polygon fill="black" stroke="black" stroke-width="0.8" points="38.69,-84.42 47.73,-90.63 40.78,-87.86 43.88,-92.96 43.88,-92.96 43.88,-92.96 40.78,-87.86 40.04,-95.3 38.69,-84.42"/>
</g>
<!-- s503&#45;&gt;m102 -->
<g id="edge4" class="edge">
<title>s503&#45;&gt;m102</title>
<path fill="none" stroke="red" stroke-width="0.8" d="M126.85,-119.27C129.03,-112.32 132.03,-102.69 134.78,-93.89"/>
<polygon fill="red" stroke="red" stroke-width="0.8" points="137.75,-84.38 139.07,-95.27 136.55,-88.22 134.77,-93.93 134.77,-93.93 134.77,-93.93 136.55,-88.22 130.48,-92.58 137.75,-84.38"/>
</g>
</g>
</svg>
